<svg preserveAspectRatio="none" width="100%" height="100%" overflow="visible" style="display: block;" viewBox="0 0 19.8333 18.6964" fill="none" xmlns="http://www.w3.org/2000/svg">
<g id="Group">
<path id="Vector" d="M12 6.58333L12.1977 12.4167" stroke="var(--stroke-0, white)" stroke-width="1.5" stroke-miterlimit="10"/>
<path id="Vector_2" d="M7.83333 6.58333L7.63559 12.4167" stroke="var(--stroke-0, white)" stroke-width="1.5" stroke-miterlimit="10"/>
<path id="Vector_3" d="M9.91667 4.08333C10.8372 4.08333 11.5833 3.33714 11.5833 2.41667C11.5833 1.49619 10.8372 0.75 9.91667 0.75C8.99617 0.75 8.25 1.49619 8.25 2.41667C8.25 3.33714 8.99617 4.08333 9.91667 4.08333Z" stroke="var(--stroke-0, white)" stroke-width="1.5" stroke-miterlimit="10" stroke-linecap="square"/>
<path id="Vector_4" d="M4.08333 12.4167L6.53934 7.50464C6.82167 6.94001 7.39877 6.58333 8.03006 6.58333H11.8033C12.4346 6.58333 13.0117 6.94 13.294 7.50464L15.75 12.4167" stroke="var(--stroke-0, white)" stroke-width="1.5" stroke-miterlimit="10"/>
<path id="Vector_5" d="M0.75 12.4167H19.0833" stroke="var(--stroke-0, white)" stroke-width="1.5" stroke-miterlimit="10" stroke-linecap="square"/>
<path id="Vector_6" d="M18.25 9.91667V14.9167" stroke="var(--stroke-0, white)" stroke-width="1.5" stroke-miterlimit="10" stroke-linecap="square"/>
<path id="Vector_7" d="M1.58333 9.91667V14.9167" stroke="var(--stroke-0, white)" stroke-width="1.5" stroke-miterlimit="10" stroke-linecap="square"/>
<path id="Vector_8" d="M7 17.8333L7.41667 15.3333" stroke="var(--stroke-0, white)" stroke-width="1.5" stroke-miterlimit="10" stroke-linecap="square"/>
<path id="Vector_9" d="M12.8333 17.8333L12.4167 15.3333" stroke="var(--stroke-0, white)" stroke-width="1.5" stroke-miterlimit="10" stroke-linecap="square"/>
</g>
</svg>
