<svg preserveAspectRatio="none" width="100%" height="100%" overflow="visible" style="display: block;" viewBox="0 0 14.3056 14.3889" fill="none" xmlns="http://www.w3.org/2000/svg">
<g id="Group">
<path id="Vector" d="M7.11111 13.6389C10.6702 13.6389 13.5556 10.7536 13.5556 7.19444C13.5556 3.63533 10.6702 0.75 7.11111 0.75C4.444 0.75 2.15582 2.37018 1.17618 4.67924" stroke="var(--stroke-0, #8C8C8C)" stroke-width="1.5" stroke-linecap="round" stroke-linejoin="round"/>
<path id="Vector_2" d="M0.782222 2.13222L1.14489 4.75L3.76178 4.38822" stroke="var(--stroke-0, #8C8C8C)" stroke-width="1.5" stroke-linecap="round" stroke-linejoin="round"/>
<path id="Vector_3" d="M7.11111 3.41667V7.19444L10 9.19444" stroke="var(--stroke-0, #8C8C8C)" stroke-width="1.5" stroke-linecap="round" stroke-linejoin="round"/>
<path id="Vector_4" d="M2.55378 12.4184C2.92197 12.4184 3.22044 12.12 3.22044 11.7518C3.22044 11.3836 2.92197 11.0851 2.55378 11.0851C2.18559 11.0851 1.88711 11.3836 1.88711 11.7518C1.88711 12.12 2.18559 12.4184 2.55378 12.4184Z" fill="var(--fill-0, #8C8C8C)"/>
<path id="Vector_5" d="M0.666667 7.86111C1.03486 7.86111 1.33333 7.56263 1.33333 7.19444C1.33333 6.82625 1.03486 6.52778 0.666667 6.52778C0.298477 6.52778 0 6.82625 0 7.19444C0 7.56263 0.298477 7.86111 0.666667 7.86111Z" fill="var(--fill-0, #8C8C8C)"/>
<path id="Vector_6" d="M4.64533 13.8149C5.01352 13.8149 5.312 13.5164 5.312 13.1482C5.312 12.78 5.01352 12.4816 4.64533 12.4816C4.27714 12.4816 3.97867 12.78 3.97867 13.1482C3.97867 13.5164 4.27714 13.8149 4.64533 13.8149Z" fill="var(--fill-0, #8C8C8C)"/>
<path id="Vector_7" d="M1.15733 10.3269C1.52552 10.3269 1.824 10.0284 1.824 9.66022C1.824 9.29203 1.52552 8.99356 1.15733 8.99356C0.789144 8.99356 0.490667 9.29203 0.490667 9.66022C0.490667 10.0284 0.789144 10.3269 1.15733 10.3269Z" fill="var(--fill-0, #8C8C8C)"/>
</g>
</svg>
