<svg preserveAspectRatio="none" width="100%" height="100%" overflow="visible" style="display: block;" viewBox="0 0 60.0104 58" fill="none" xmlns="http://www.w3.org/2000/svg">
<g id="Group">
<path id="Vector" d="M58.5169 13.383C55.0979 6.6 50.8699 6.008 46.0989 6C44.6672 4.81298 43.0619 3.8528 41.3389 3.153C39.7389 2.44 38.5869 1.925 37.9009 0.553C37.8178 0.386767 37.6901 0.246969 37.532 0.149289C37.3739 0.0516099 37.1917 -8.64869e-05 37.0059 1.08612e-07H23.0059C22.82 -8.64869e-05 22.6379 0.0516099 22.4798 0.149289C22.3217 0.246969 22.1939 0.386767 22.1109 0.553C21.4249 1.926 20.2709 2.441 18.6729 3.153C16.9498 3.8528 15.3445 4.81298 13.9129 6C9.14186 6.007 4.91286 6.6 1.49486 13.382C-0.057137 16.463 -0.405137 24.432 0.471863 37.068C0.871863 42.868 3.90086 56.632 4.02886 57.215C4.07787 57.4376 4.20145 57.6368 4.37913 57.7795C4.55681 57.9223 4.77793 58.0001 5.00586 58H12.9819C12.7557 54.6523 12.3215 51.3218 11.6819 48.028C10.9329 44.2289 10.465 40.3799 10.2819 36.512C7.96386 34.091 6.00586 31.177 6.00586 27C6.00586 26.7348 6.11122 26.4804 6.29876 26.2929C6.48629 26.1054 6.74065 26 7.00586 26C7.27108 26 7.52543 26.1054 7.71297 26.2929C7.90051 26.4804 8.00586 26.7348 8.00586 27C8.00586 30.652 9.73686 33.131 11.9729 35.389L11.9909 35.406C12.7239 36.146 13.5109 36.861 14.3089 37.587C16.02 39.0123 17.5441 40.6483 18.8449 42.456C18.9182 42.5662 18.9689 42.6898 18.9941 42.8197C19.0193 42.9496 19.0184 43.0832 18.9916 43.2128C18.9648 43.3424 18.9125 43.4653 18.8378 43.5746C18.7631 43.6838 18.6674 43.7771 18.5564 43.8491C18.4454 43.9211 18.3212 43.9703 18.191 43.994C18.0608 44.0176 17.9272 44.0151 17.7979 43.9868C17.6687 43.9584 17.5463 43.9046 17.438 43.8286C17.3297 43.7526 17.2375 43.6559 17.1669 43.544C15.9591 41.882 14.5482 40.3776 12.9669 39.066L12.3809 38.533C12.5959 41.433 13.1319 44.6 13.6579 47.692C14.3146 51.0969 14.7568 54.5397 14.9819 58H45.0299C45.2559 54.5396 45.6992 51.0968 46.3569 47.692C46.8829 44.6 47.4189 41.429 47.6339 38.532C47.4339 38.712 47.2419 38.89 47.0479 39.066C45.4665 40.3776 44.0556 41.882 42.8479 43.544C42.7021 43.7631 42.4758 43.9158 42.2181 43.9692C41.9604 44.0226 41.6921 43.9722 41.4713 43.829C41.2505 43.6859 41.0951 43.4614 41.0386 43.2044C40.9822 42.9474 41.0294 42.6785 41.1699 42.456C42.4706 40.6483 43.9947 39.0123 45.7059 37.587C46.5059 36.861 47.2909 36.146 48.0239 35.406L48.0419 35.389C50.2749 33.131 52.0059 30.652 52.0059 27C52.0059 26.7348 52.1112 26.4804 52.2988 26.2929C52.4863 26.1054 52.7406 26 53.0059 26C53.2711 26 53.5254 26.1054 53.713 26.2929C53.9005 26.4804 54.0059 26.7348 54.0059 27C54.0059 31.177 52.0479 34.091 49.7259 36.512C49.5428 40.3799 49.0748 44.2289 48.3259 48.028C47.6875 51.3219 47.2547 54.6523 47.0299 58H55.0059C55.2337 58.0001 55.4547 57.9225 55.6323 57.7799C55.81 57.6374 55.9337 57.4384 55.9829 57.216C56.1109 56.633 59.1379 42.871 59.5399 37.069C60.4139 24.433 60.0689 16.464 58.5169 13.383ZM19.6679 30.75C19.469 30.9256 19.2084 31.0149 18.9436 30.9984C18.6788 30.9819 18.4314 30.8609 18.2559 30.662C18.0803 30.4631 17.9909 30.2026 18.0074 29.9378C18.0239 29.673 18.145 29.4256 18.3439 29.25C20.1249 27.7455 21.5548 25.8691 22.5329 23.7527C23.5111 21.6364 24.0139 19.3315 24.0059 17C24.0059 16.7348 24.1112 16.4804 24.2988 16.2929C24.4863 16.1054 24.7406 16 25.0059 16C25.2711 16 25.5254 16.1054 25.713 16.2929C25.9005 16.4804 26.0059 16.7348 26.0059 17C26.0169 19.6156 25.4552 22.2018 24.3603 24.5772C23.2654 26.9526 21.6638 29.0595 19.6679 30.75ZM31.0059 45C31.0059 45.2652 30.9005 45.5196 30.713 45.7071C30.5254 45.8946 30.2711 46 30.0059 46C29.7406 46 29.4863 45.8946 29.2988 45.7071C29.1112 45.5196 29.0059 45.2652 29.0059 45V29C29.0059 28.7348 29.1112 28.4804 29.2988 28.2929C29.4863 28.1054 29.7406 28 30.0059 28C30.2711 28 30.5254 28.1054 30.713 28.2929C30.9005 28.4804 31.0059 28.7348 31.0059 29V45ZM41.7559 30.662C41.669 30.7605 41.5635 30.841 41.4455 30.8987C41.3275 30.9565 41.1992 30.9904 41.0681 30.9986C40.937 31.0068 40.8055 30.989 40.6812 30.9464C40.557 30.9037 40.4423 30.837 40.3439 30.75C38.348 29.0595 36.7463 26.9526 35.6514 24.5772C34.5565 22.2018 33.9948 19.6156 34.0059 17C34.0059 16.7348 34.1112 16.4804 34.2988 16.2929C34.4863 16.1054 34.7406 16 35.0059 16C35.2711 16 35.5254 16.1054 35.713 16.2929C35.9005 16.4804 36.0059 16.7348 36.0059 17C35.9978 19.3315 36.5006 21.6364 37.4788 23.7527C38.457 25.8691 39.8868 27.7455 41.6679 29.25C41.7664 29.3369 41.8468 29.4424 41.9046 29.5604C41.9623 29.6784 41.9963 29.8066 42.0045 29.9378C42.0126 30.0689 41.9949 30.2004 41.9522 30.3246C41.9096 30.4489 41.8428 30.5635 41.7559 30.662Z" fill="var(--fill-0, #4B4A4A)"/>
</g>
</svg>
