<svg preserveAspectRatio="none" width="100%" height="100%" overflow="visible" style="display: block;" viewBox="0 0 29.9999 29.9985" fill="none" xmlns="http://www.w3.org/2000/svg">
<g id="Group">
<path id="Vector" opacity="0.3" d="M24.9999 7.99853H11.9999C9.78988 7.99853 7.99988 9.78853 7.99988 11.9985V24.9985C7.99988 27.2085 9.78988 28.9985 11.9999 28.9985H24.9999C27.2099 28.9985 28.9999 27.2085 28.9999 24.9985V11.9985C28.9999 9.78853 27.2099 7.99853 24.9999 7.99853Z" fill="var(--fill-0, #B7B7B7)"/>
<path id="Vector_2" d="M24.9999 7.99853H11.9999C9.78988 7.99853 7.99988 9.78853 7.99988 11.9985V24.9985C7.99988 27.2085 9.78988 28.9985 11.9999 28.9985H24.9999C27.2099 28.9985 28.9999 27.2085 28.9999 24.9985V11.9985C28.9999 9.78853 27.2099 7.99853 24.9999 7.99853Z" stroke="var(--stroke-0, #B7B7B7)" stroke-width="2" stroke-linecap="round" stroke-linejoin="round"/>
<path id="Vector_3" d="M18.4999 22.9985V13.9985" stroke="var(--stroke-0, #B7B7B7)" stroke-width="2" stroke-linecap="round" stroke-linejoin="round"/>
<path id="Vector_4" d="M13.9999 18.4985H22.9999" stroke="var(--stroke-0, #B7B7B7)" stroke-width="2" stroke-linecap="round" stroke-linejoin="round"/>
<path id="Vector_5" d="M22.3023 2.99849C21.5043 1.62149 19.9301 0.795268 18.2599 1.04427L4.41192 3.10251C2.22792 3.42631 0.719938 5.46051 1.04394 7.64651L2.99992 20.8081" stroke="var(--stroke-0, #B7B7B7)" stroke-width="2" stroke-linecap="round" stroke-linejoin="round"/>
</g>
</svg>
