<svg preserveAspectRatio="none" width="100%" height="100%" overflow="visible" style="display: block;" viewBox="0 0 18.1667 20.8333" fill="none" xmlns="http://www.w3.org/2000/svg">
<g id="Group">
<path id="Vector" fill-rule="evenodd" clip-rule="evenodd" d="M11.2048 19.4167H4.08333C2.242 19.4167 0.75 17.9247 0.75 16.0833C0.75 14.242 2.242 12.75 4.08333 12.75H11.2048C10.127 13.4667 9.41667 14.692 9.41667 16.0833C9.41667 17.4747 10.127 18.7 11.2048 19.4167Z" fill="var(--fill-0, #4F4F4F)"/>
<path id="Vector_2" d="M6.96069 1.41667H14.0833C15.9247 1.41667 17.4167 2.90867 17.4167 4.75C17.4167 6.59133 15.9247 8.08333 14.0833 8.08333H6.96069" stroke="var(--stroke-0, #B7B7B7)" stroke-width="1.5" stroke-linecap="round" stroke-linejoin="round"/>
<path id="Vector_3" d="M11.2047 19.4167H4.08333C2.242 19.4167 0.75 17.9247 0.75 16.0833C0.75 14.242 2.242 12.75 4.08333 12.75H11.2087" stroke="var(--stroke-0, #B7B7B7)" stroke-width="1.5" stroke-linecap="round" stroke-linejoin="round"/>
<path id="Vector_4" d="M4.75 8.75C6.95913 8.75 8.75 6.95913 8.75 4.75C8.75 2.54087 6.95913 0.75 4.75 0.75C2.54087 0.75 0.75 2.54087 0.75 4.75C0.75 6.95913 2.54087 8.75 4.75 8.75Z" stroke="var(--stroke-0, #B7B7B7)" stroke-width="1.5" stroke-linecap="round" stroke-linejoin="round"/>
<path id="Vector_5" d="M13.4167 20.0833C15.6259 20.0833 17.4167 18.2925 17.4167 16.0833C17.4167 13.8741 15.6259 12.0833 13.4167 12.0833C11.2075 12.0833 9.41667 13.8741 9.41667 16.0833C9.41667 18.2925 11.2075 20.0833 13.4167 20.0833Z" stroke="var(--stroke-0, #B7B7B7)" stroke-width="1.5" stroke-linecap="round" stroke-linejoin="round"/>
</g>
</svg>
