<svg preserveAspectRatio="none" width="100%" height="100%" overflow="visible" style="display: block;" viewBox="0 0 20.8337 20.8335" fill="none" xmlns="http://www.w3.org/2000/svg">
<g id="Group">
<path id="Vector" d="M13.5101 9.25693H7.32339C6.25562 9.25693 5.39004 10.1225 5.39004 11.1903V13.5103C5.39004 14.5781 6.25562 15.4436 7.32339 15.4436H13.5101C14.5779 15.4436 15.4435 14.5781 15.4435 13.5103V11.1903C15.4435 10.1225 14.5779 9.25693 13.5101 9.25693Z" fill="var(--fill-0, #4F4F4F)"/>
<path id="Vector_2" d="M0.75 6.16338V3.84336C0.75 2.13428 2.13428 0.75 3.84336 0.75H6.93672" stroke="var(--stroke-0, #B7B7B7)" stroke-width="1.5" stroke-linecap="round" stroke-linejoin="round"/>
<path id="Vector_3" d="M13.897 0.75H16.9903C18.6994 0.75 20.0837 2.13428 20.0837 3.84336V6.16338" stroke="var(--stroke-0, #B7B7B7)" stroke-width="1.5" stroke-linecap="round" stroke-linejoin="round"/>
<path id="Vector_4" d="M20.0837 14.6701V16.9901C20.0837 18.6992 18.6994 20.0835 16.9903 20.0835H13.897" stroke="var(--stroke-0, #B7B7B7)" stroke-width="1.5" stroke-linecap="round" stroke-linejoin="round"/>
<path id="Vector_5" d="M6.93672 20.0835H3.84336C2.13428 20.0835 0.75 18.6992 0.75 16.9901V14.6701" stroke="var(--stroke-0, #B7B7B7)" stroke-width="1.5" stroke-linecap="round" stroke-linejoin="round"/>
<path id="Vector_6" d="M13.5101 9.25693H7.32339C6.25562 9.25693 5.39004 10.1225 5.39004 11.1903V13.5103C5.39004 14.5781 6.25562 15.4436 7.32339 15.4436H13.5101C14.5779 15.4436 15.4435 14.5781 15.4435 13.5103V11.1903C15.4435 10.1225 14.5779 9.25693 13.5101 9.25693Z" stroke="var(--stroke-0, #B7B7B7)" stroke-width="1.5" stroke-linecap="round" stroke-linejoin="round"/>
<path id="Vector_7" d="M7.71006 9.25655V6.54986C7.71006 5.05577 8.92266 3.84317 10.4167 3.84317C11.9108 3.84317 13.1234 5.05577 13.1234 6.54986V9.25655" stroke="var(--stroke-0, #B7B7B7)" stroke-width="1.5" stroke-linecap="round" stroke-linejoin="round"/>
</g>
</svg>
