<svg preserveAspectRatio="none" width="100%" height="100%" overflow="visible" style="display: block;" viewBox="0 0 20.8333 20.8333" fill="none" xmlns="http://www.w3.org/2000/svg">
<g id="Group">
<path id="Vector" fill-rule="evenodd" clip-rule="evenodd" d="M15.5393 18.6159C18.2684 16.9072 20.0833 13.8739 20.0833 10.4167C20.0833 5.07792 15.7555 0.75 10.4167 0.75C5.07792 0.75 0.75 5.07792 0.75 10.4167C0.75 13.8739 2.56491 16.9072 5.29395 18.6159C5.93116 16.3872 7.9834 14.756 10.4167 14.756C12.8499 14.756 14.9021 16.3872 15.5393 18.6159ZM10.4167 11.4167C11.8895 11.4167 13.0833 10.2228 13.0833 8.75C13.0833 7.27724 11.8895 6.08333 10.4167 6.08333C8.94391 6.08333 7.75 7.27724 7.75 8.75C7.75 10.2228 8.94391 11.4167 10.4167 11.4167Z" fill="var(--fill-0, #4F4F4F)"/>
<path id="Vector_2" d="M10.4167 11.4167C11.8895 11.4167 13.0833 10.2228 13.0833 8.75C13.0833 7.27724 11.8895 6.08333 10.4167 6.08333C8.94391 6.08333 7.75 7.27724 7.75 8.75C7.75 10.2228 8.94391 11.4167 10.4167 11.4167Z" stroke="var(--stroke-0, #B7B7B7)" stroke-width="1.5" stroke-linecap="round" stroke-linejoin="round"/>
<path id="Vector_3" d="M5.28865 18.6127C5.92732 16.382 7.98065 14.75 10.4167 14.75C12.8527 14.75 14.906 16.382 15.5447 18.6127" stroke="var(--stroke-0, #B7B7B7)" stroke-width="1.5" stroke-linecap="round" stroke-linejoin="round"/>
<path id="Vector_4" d="M10.4167 20.0833C15.7555 20.0833 20.0833 15.7555 20.0833 10.4167C20.0833 5.07792 15.7555 0.75 10.4167 0.75C5.07792 0.75 0.75 5.07792 0.75 10.4167C0.75 15.7555 5.07792 20.0833 10.4167 20.0833Z" stroke="var(--stroke-0, #B7B7B7)" stroke-width="1.5" stroke-linecap="round" stroke-linejoin="round"/>
</g>
</svg>
