<svg preserveAspectRatio="none" width="100%" height="100%" overflow="visible" style="display: block;" viewBox="0 0 16.8578 15.5" fill="none" xmlns="http://www.w3.org/2000/svg">
<g id="Group">
<path id="Vector" fill-rule="evenodd" clip-rule="evenodd" d="M16.0474 10.3635C16.2414 10.8785 15.9344 11.4475 15.4114 11.6225C14.5348 11.9153 13.3611 12.1965 11.9641 12.2436C11.9458 12.1857 11.9258 12.1278 11.904 12.0698C11.3327 10.5536 10.2323 9.2859 8.85025 8.47266C8.20543 8.09318 11.2757 7.25153 11.5534 7.25153C13.6114 7.25153 15.3624 8.54552 16.0474 10.3635Z" fill="var(--fill-0, #F2A655)" fill-opacity="0.3"/>
<path id="Vector_2" d="M11.5534 4.75C12.658 4.75 13.5534 3.85457 13.5534 2.75C13.5534 1.64543 12.658 0.75 11.5534 0.75C10.4488 0.75 9.55335 1.64543 9.55335 2.75C9.55335 3.85457 10.4488 4.75 11.5534 4.75Z" fill="var(--fill-0, #F2A655)" fill-opacity="0.3"/>
<path id="Vector_3" d="M5.30335 7.25C6.40792 7.25 7.30335 6.35457 7.30335 5.25C7.30335 4.14543 6.40792 3.25 5.30335 3.25C4.19878 3.25 3.30335 4.14543 3.30335 5.25C3.30335 6.35457 4.19878 7.25 5.30335 7.25Z" stroke="var(--stroke-0, #F2A655)" stroke-width="1.5" stroke-linecap="round" stroke-linejoin="round"/>
<path id="Vector_4" d="M9.16238 14.122C9.68535 13.947 9.99235 13.378 9.79835 12.863C9.11338 11.045 7.36238 9.751 5.30438 9.751C3.24638 9.751 1.49538 11.045 0.810383 12.863C0.616383 13.379 0.923383 13.948 1.44638 14.122C2.40838 14.443 3.72738 14.75 5.30538 14.75C6.88338 14.75 8.20138 14.443 9.16238 14.122Z" stroke="var(--stroke-0, #F2A655)" stroke-width="1.5" stroke-linecap="round" stroke-linejoin="round"/>
<path id="Vector_5" d="M11.5534 4.75C12.658 4.75 13.5534 3.85457 13.5534 2.75C13.5534 1.64543 12.658 0.75 11.5534 0.75C10.4488 0.75 9.55335 1.64543 9.55335 2.75C9.55335 3.85457 10.4488 4.75 11.5534 4.75Z" stroke="var(--stroke-0, #F2A655)" stroke-width="1.5" stroke-linecap="round" stroke-linejoin="round"/>
<path id="Vector_6" d="M12.7074 12.1873C13.7758 12.0845 14.6971 11.8614 15.4114 11.6226C15.9344 11.4476 16.2414 10.8785 16.0474 10.3636C15.3624 8.54552 13.6114 7.25153 11.5534 7.25153C10.7142 7.25153 9.93235 7.47713 9.24622 7.85553" stroke="var(--stroke-0, #F2A655)" stroke-width="1.5" stroke-linecap="round" stroke-linejoin="round"/>
</g>
</svg>
