<svg preserveAspectRatio="none" width="100%" height="100%" overflow="visible" style="display: block;" viewBox="0 0 15.3339 15.9996" fill="none" xmlns="http://www.w3.org/2000/svg">
<g id="Group">
<path id="Vector" d="M3.89485 4.67C3.14185 7.776 4.97685 8.094 5.71885 9.867C6.76485 8.628 10.3488 7.22 12.6568 8.404C14.9648 9.588 15.2118 12.835 13.3338 14.068C12.2268 14.794 10.5308 15.242 9.01184 15.243C7.28085 15.287 6.03185 15.107 5.48885 14.835C4.59085 14.95 2.69385 14.937 1.91885 14.148C1.38685 13.607 0.300849 10.502 0.951849 7.19C1.64285 3.694 2.79585 0.75 4.04085 0.75C4.65085 0.75 5.64185 0.77 6.10485 1.145C6.56785 1.52 6.35385 2.341 6.08985 2.793C6.41285 3.052 6.48185 3.517 6.24885 3.859C5.87285 4.287 5.38385 4.6 4.83785 4.762C4.52485 4.847 4.15085 4.746 3.89485 4.67Z" fill="#F2A655" fill-opacity="0.3"/>
<path id="Vector_2" d="M3.89485 4.67C3.14185 7.776 4.97685 8.094 5.71885 9.867C6.76485 8.628 10.3488 7.22 12.6568 8.404C14.9648 9.588 15.2118 12.835 13.3338 14.068C12.2268 14.794 10.5308 15.242 9.01184 15.243C7.28085 15.287 6.03185 15.107 5.48885 14.835C4.59085 14.95 2.69385 14.937 1.91885 14.148C1.38685 13.607 0.300849 10.502 0.951849 7.19C1.64285 3.694 2.79585 0.75 4.04085 0.75C4.65085 0.75 5.64185 0.77 6.10485 1.145C6.56785 1.52 6.35385 2.341 6.08985 2.793C6.41285 3.052 6.48185 3.517 6.24885 3.859C5.87285 4.287 5.38385 4.6 4.83785 4.762C4.52485 4.847 4.15085 4.746 3.89485 4.67Z" stroke="#F2A655" stroke-width="1.5" stroke-linecap="round" stroke-linejoin="round"/>
<path id="Vector_3" d="M7.42084 11.999C8.85884 12.505 10.7058 12.128 11.9208 11.296" stroke="#F2A655" stroke-width="1.5" stroke-linecap="round" stroke-linejoin="round"/>
</g>
</svg>
