<svg preserveAspectRatio="none" width="100%" height="100%" overflow="visible" style="display: block;" viewBox="0 0 16.004 16.003" fill="none" xmlns="http://www.w3.org/2000/svg">
<g id="Group">
<g id="Vector">
</g>
<path id="Vector_2" d="M8.00201 10.251C9.24461 10.251 10.252 9.2436 10.252 8.001C10.252 6.75836 9.24461 5.751 8.00201 5.751C6.75937 5.751 5.75201 6.75836 5.75201 8.001C5.75201 9.2436 6.75937 10.251 8.00201 10.251Z" stroke="var(--stroke-0, #8B8B8B)" stroke-width="1.5" stroke-linecap="round" stroke-linejoin="round"/>
<path id="Vector_3" d="M15.252 8.356V7.646C15.252 7.136 14.869 6.708 14.362 6.652L13.268 6.53L12.765 5.316L13.453 4.457C13.771 4.059 13.74 3.486 13.379 3.125L12.877 2.623C12.517 2.263 11.943 2.231 11.545 2.549L10.686 3.237L9.47201 2.734L9.35001 1.64C9.29401 1.134 8.866 0.75 8.356 0.75H7.646C7.136 0.75 6.708 1.133 6.652 1.64L6.53 2.734L5.316 3.237L4.457 2.55C4.059 2.232 3.486 2.263 3.125 2.624L2.623 3.126C2.263 3.486 2.231 4.06 2.549 4.458L3.237 5.317L2.734 6.531L1.64 6.653C1.134 6.709 0.75 7.137 0.75 7.647V8.357C0.75 8.867 1.133 9.295 1.64 9.351L2.734 9.473L3.237 10.687L2.55 11.546C2.232 11.944 2.263 12.518 2.624 12.878L3.126 13.38C3.486 13.74 4.06 13.772 4.458 13.454L5.317 12.766L6.531 13.269L6.653 14.363C6.709 14.869 7.137 15.253 7.647 15.253H8.357C8.867 15.253 9.29501 14.87 9.35101 14.363L9.47301 13.269L10.687 12.766L11.546 13.454C11.944 13.772 12.517 13.741 12.878 13.38L13.38 12.878C13.74 12.518 13.772 11.944 13.454 11.546L12.767 10.687L13.27 9.473L14.364 9.351C14.87 9.295 15.254 8.867 15.254 8.357L15.252 8.356Z" stroke="var(--stroke-0, #8B8B8B)" stroke-width="1.5" stroke-linecap="round" stroke-linejoin="round"/>
</g>
</svg>
